
<svg height="472pt" viewBox="-16 0 472 472" width="472pt" xmlns="http://www.w3.org/2000/svg"><path d="m277.542969 456-29.503907-96h-80l-29.574218 96h-34.464844v16h208v-16zm0 0" fill="#dedede"/><path d="m255.414062 384-7.375-24h-80l-7.390624 24zm0 0" fill="#c7c7c7"/><path d="m392 64h-360c-17.671875 0-32 14.328125-32 32v208h424v-208c0-17.671875-14.328125-32-32-32zm0 0" fill="#4398d1"/><path d="m0 304v24c0 17.671875 14.328125 32 32 32h360c17.671875 0 32-14.328125 32-32v-24zm0 0" fill="#dedede"/><path d="m352 64h40v240h-40zm0 0" fill="#3087c2"/><path d="m312 0h-248c-13.253906 0-24 10.746094-24 24v280h336v-240zm0 0" fill="#87ced9"/><path d="m336 80h40v-16l-64-64v56c0 13.253906 10.746094 24 24 24zm0 0" fill="#71c4d1"/><path d="m40 280h336v24h-336zm0 0" fill="#71c4d1"/><g fill="#5eb3d1"><path d="m64 24h16v16h-16zm0 0"/><path d="m96 24h16v16h-16zm0 0"/><path d="m128 24h16v16h-16zm0 0"/></g><path d="m336 64h40l-64-64v40c0 13.253906 10.746094 24 24 24zm0 0" fill="#d6d9db"/><path d="m72 96h272v176h-272zm0 0" fill="#4398d1"/><path d="m72 208 72-72 80 64 56-40 64 56v56h-272zm0 0" fill="#88b337"/><path d="m248 144c0 13.253906-10.746094 24-24 24s-24-10.746094-24-24 10.746094-24 24-24 24 10.746094 24 24zm0 0" fill="#e8594a"/><path d="m130.347656 186.34375 15.996094-15.996094 11.316406 11.3125-16 15.996094zm0 0" fill="#aacc60"/><path d="m90.347656 226.339844 32-32 11.316406 11.3125-32.003906 32.003906zm0 0" fill="#aacc60"/><path d="m64 56h224v16h-224zm0 0" fill="#5eb3d1"/><path d="m376 376 59.03125 59.03125c3.183594 3.183594 4.96875 7.5 4.96875 12-.003906 9.371094-7.597656 16.964844-16.96875 16.96875-4.5 0-8.816406-1.785156-12-4.96875l-59.03125-59.03125" fill="#db4a3b"/><path d="m392 320c0 57.4375-46.5625 104-104 104s-104-46.5625-104-104 46.5625-104 104-104 104 46.5625 104 104zm0 0" fill="#e8594a"/><path d="m360 320c0 39.765625-32.234375 72-72 72s-72-32.234375-72-72 32.234375-72 72-72 72 32.234375 72 72zm0 0" fill="#71c4d1"/><path d="m336 320c0 26.507812-21.492188 48-48 48s-48-21.492188-48-48 21.492188-48 48-48 48 21.492188 48 48zm0 0" fill="#87ced9"/><path d="m256 320h-16c.027344-26.5 21.5-47.972656 48-48v16c-17.671875 0-32 14.328125-32 32zm0 0" fill="#95e4f0"/></svg>