
<svg height="467pt" viewBox="-33 0 467 467.53999" width="467pt" xmlns="http://www.w3.org/2000/svg"><path d="m164.648438 300.039062h89.371093v167.5h-89.371093zm0 0" fill="#f4b844"/><path d="m254.019531 108.949219v191.089843h-89.371093v-191.578124h89.371093zm0 0" fill="#fedb41"/><path d="m130.648438 25.71875v60.300781h-1.988282c-47.21875-.109375-94.761718 15.410157-128.390625 49.640625 2.761719-8.773437 6.1875-17.320312 10.25-25.570312 24.460938-48.550782 70.820313-72.480469 119.070313-84.371094zm0 0" fill="#00acea"/><path d="m401.109375 45.96875v17.519531c-.003906 25.390625-20.589844 45.972657-45.980469 45.972657h-13.128906c-7.257812 0-13.140625-5.882813-13.140625-13.140626v-5.46875c0-7.253906-5.878906-13.128906-13.128906-13.132812h-28.460938v31.742188h-157.621093v-109.460938h157.621093v26.269531h28.460938c7.25 0 13.128906-5.878906 13.128906-13.128906.003906-7.257813 5.882813-13.13671875 13.140625-13.140625h13.128906c25.390625 0 45.976563 20.578125 45.980469 45.96875zm0 0" fill="#00efd1"/></svg>